<svg preserveAspectRatio="none" width="100%" height="100%" overflow="visible" style="display: block;" viewBox="0 0 78.7783 78.7782" fill="none" xmlns="http://www.w3.org/2000/svg">
<g id="Group 38">
<circle id="Ellipse 12" cx="39.3891" cy="39.3891" r="39.3891" fill="var(--fill-0, white)"/>
<circle id="Ellipse 13" cx="39.3891" cy="39.3892" r="36.9273" fill="var(--fill-0, #FFF7D6)"/>
<g id="ic:outline-menu-book">
<rect width="39.3891" height="39.3891" transform="translate(19.6947 19.6946)" fill="#FFF7D6"/>
<path id="Vector" d="M54.1601 27.9007C52.3384 27.3262 50.3361 27.0801 48.4159 27.0801C45.2155 27.0801 41.769 27.7365 39.3892 29.5419C37.0094 27.7365 33.5629 27.0801 30.3625 27.0801C27.1622 27.0801 23.7156 27.7365 21.3359 29.5419V53.5856C21.3359 53.9959 21.7462 54.4062 22.1565 54.4062C22.3206 54.4062 22.4027 54.3242 22.5668 54.3242C24.7824 53.2574 27.9828 52.5188 30.3625 52.5188C33.5629 52.5188 37.0094 53.1753 39.3892 54.9807C41.6048 53.5856 45.6258 52.5188 48.4159 52.5188C51.1239 52.5188 53.9139 53.0112 56.2116 54.2421C56.3758 54.3242 56.4578 54.3242 56.6219 54.3242C57.0322 54.3242 57.4425 53.9139 57.4425 53.5036V29.5419C56.4578 28.8033 55.391 28.311 54.1601 27.9007ZM54.1601 50.057C52.3548 49.4826 50.3853 49.2364 48.4159 49.2364C45.6258 49.2364 41.6048 50.3032 39.3892 51.6982V32.8243C41.6048 31.4293 45.6258 30.3625 48.4159 30.3625C50.3853 30.3625 52.3548 30.6087 54.1601 31.1831V50.057Z" fill="var(--fill-0, #E87000)"/>
<path id="Vector_2" d="M48.4159 36.9273C49.8601 36.9273 51.2552 37.075 52.5189 37.354V34.8594C51.2223 34.6132 49.8273 34.4655 48.4159 34.4655C45.6258 34.4655 43.0983 34.9415 41.0304 35.8277V38.5521C42.885 37.5018 45.4617 36.9273 48.4159 36.9273ZM41.0304 40.1933V42.9178C42.885 41.8674 45.4617 41.293 48.4159 41.293C49.8601 41.293 51.2552 41.4407 52.5189 41.7197V39.225C51.2223 38.9788 49.8273 38.8311 48.4159 38.8311C45.6258 38.8311 43.0983 39.3235 41.0304 40.1933ZM48.4159 43.2132C45.6258 43.2132 43.0983 43.6891 41.0304 44.5754V47.2998C42.885 46.2494 45.4617 45.675 48.4159 45.675C49.8601 45.675 51.2552 45.8227 52.5189 46.1017V43.6071C51.2223 43.3445 49.8273 43.2132 48.4159 43.2132Z" fill="var(--fill-0, #E87000)"/>
</g>
</g>
</svg>
