<svg preserveAspectRatio="none" width="100%" height="100%" overflow="visible" style="display: block;" viewBox="0 0 78.7782 78.7782" fill="none" xmlns="http://www.w3.org/2000/svg">
<g id="Group 47">
<circle id="Ellipse 12" cx="39.3891" cy="39.3891" r="39.3891" fill="var(--fill-0, white)"/>
<circle id="Ellipse 13" cx="39.3892" cy="39.3891" r="36.9273" fill="var(--fill-0, #D7ECFF)"/>
<circle id="Ellipse 14" cx="39.3899" cy="39.389" r="19.6945" fill="var(--fill-0, #0065F4)"/>
<g id="material-symbols:quiz-rounded">
<path id="Vector" d="M41.0303 41.8508C41.2628 41.8508 41.4647 41.7655 41.6359 41.5948C41.8072 41.4241 41.8925 41.2222 41.892 40.9892C41.8914 40.7561 41.8061 40.5545 41.6359 40.3844C41.4658 40.2142 41.2639 40.1286 41.0303 40.1275C40.7967 40.1264 40.5951 40.212 40.4255 40.3844C40.2559 40.5567 40.1703 40.7583 40.1687 40.9892C40.167 41.22 40.2527 41.4219 40.4255 41.5948C40.5984 41.7676 40.8 41.853 41.0303 41.8508ZM41.0303 39.2249C41.1808 39.2249 41.3211 39.1702 41.4513 39.0607C41.5815 38.9513 41.66 38.8077 41.6868 38.6299C41.7142 38.4658 41.7721 38.3154 41.8608 38.1786C41.9494 38.0418 42.1102 37.8572 42.3433 37.6247C42.7536 37.2144 43.0271 36.8826 43.1639 36.6293C43.3007 36.376 43.369 36.0787 43.369 35.7373C43.369 35.1218 43.1535 34.6191 42.7224 34.229C42.2913 33.8389 41.7273 33.6442 41.0303 33.6447C40.579 33.6447 40.1687 33.7473 39.7994 33.9525C39.4301 34.1576 39.1361 34.4517 38.9173 34.8346C38.8352 34.9714 38.8284 35.115 38.8967 35.2654C38.9651 35.4159 39.0814 35.5253 39.2455 35.5937C39.3959 35.6621 39.5431 35.6689 39.687 35.6142C39.8309 35.5595 39.9504 35.4637 40.0456 35.327C40.1687 35.1492 40.3123 35.016 40.4764 34.9273C40.6405 34.8387 40.8252 34.7941 41.0303 34.7936C41.3586 34.7936 41.6253 34.886 41.8304 35.0709C42.0356 35.2559 42.1381 35.5053 42.1381 35.8193C42.1381 36.0108 42.0834 36.1922 41.974 36.3634C41.8646 36.5346 41.6731 36.7499 41.3996 37.0092C41.003 37.3511 40.7499 37.6146 40.6405 37.7995C40.5311 37.9844 40.4627 38.2544 40.4354 38.6094C40.4217 38.7735 40.4731 38.9171 40.5897 39.0402C40.7062 39.1633 40.8531 39.2249 41.0303 39.2249ZM36.1067 44.3126C35.6553 44.3126 35.2691 44.1521 34.948 43.8309C34.6269 43.5098 34.466 43.1233 34.4655 42.6714V32.8241C34.4655 32.3728 34.6263 31.9866 34.948 31.6654C35.2697 31.3443 35.6559 31.1835 36.1067 31.1829H45.954C46.4053 31.1829 46.7918 31.3438 47.1135 31.6654C47.4351 31.9871 47.5957 32.3733 47.5952 32.8241V42.6714C47.5952 43.1227 47.4346 43.5092 47.1135 43.8309C46.7923 44.1526 46.4058 44.3132 45.954 44.3126H36.1067ZM32.8243 47.595C32.3729 47.595 31.9867 47.4345 31.6656 47.1133C31.3444 46.7922 31.1836 46.4057 31.183 45.9538V35.2859C31.183 35.0534 31.2618 34.8587 31.4194 34.7017C31.5769 34.5447 31.7717 34.4659 32.0036 34.4653C32.2356 34.4648 32.4306 34.5436 32.5887 34.7017C32.7468 34.8598 32.8253 35.0545 32.8243 35.2859V45.9538H43.4921C43.7246 45.9538 43.9197 46.0326 44.0772 46.1902C44.2348 46.3477 44.3133 46.5425 44.3127 46.7744C44.3122 47.0064 44.2334 47.2014 44.0764 47.3595C43.9194 47.5176 43.7246 47.5961 43.4921 47.595H32.8243Z" fill="var(--fill-0, white)"/>
</g>
</g>
</svg>
