<svg preserveAspectRatio="none" width="100%" height="100%" overflow="visible" style="display: block;" viewBox="0 0 78.7783 78.7783" fill="none" xmlns="http://www.w3.org/2000/svg">
<g id="Group 51">
<circle id="Ellipse 12" cx="39.3891" cy="39.3891" r="39.3891" fill="var(--fill-0, white)"/>
<circle id="Ellipse 13" cx="39.3886" cy="39.3891" r="36.9273" fill="var(--fill-0, #FFF7D6)"/>
<g id="ic:outline-menu-book">
<rect width="39.3891" height="39.3891" transform="translate(19.6948 19.6945)" fill="#FFF7D6"/>
<path id="Vector" d="M54.1602 27.9006C52.3385 27.3262 50.3362 27.08 48.416 27.08C45.2156 27.08 41.7691 27.7365 39.3893 29.5418C37.0096 27.7365 33.563 27.08 30.3626 27.08C27.1623 27.08 23.7157 27.7365 21.336 29.5418V53.5855C21.336 53.9959 21.7463 54.4062 22.1566 54.4062C22.3207 54.4062 22.4028 54.3241 22.5669 54.3241C24.7825 53.2573 27.9829 52.5188 30.3626 52.5188C33.563 52.5188 37.0096 53.1752 39.3893 54.9806C41.605 53.5856 45.6259 52.5188 48.416 52.5188C51.124 52.5188 53.914 53.0111 56.2117 54.242C56.3759 54.3241 56.4579 54.3241 56.622 54.3241C57.0323 54.3241 57.4427 53.9138 57.4427 53.5035V29.5418C56.4579 28.8032 55.3911 28.3109 54.1602 27.9006ZM54.1602 50.0569C52.3549 49.4825 50.3854 49.2363 48.416 49.2363C45.6259 49.2363 41.605 50.3031 39.3893 51.6982V32.8242C41.605 31.4292 45.6259 30.3624 48.416 30.3624C50.3854 30.3624 52.3549 30.6086 54.1602 31.183V50.0569Z" fill="var(--fill-0, #E87000)"/>
<path id="Vector_2" d="M48.416 36.9272C49.8603 36.9272 51.2553 37.075 52.519 37.354V34.8593C51.2225 34.6131 49.8274 34.4654 48.416 34.4654C45.6259 34.4654 43.0985 34.9414 41.0305 35.8276V38.552C42.8851 37.5017 45.4618 36.9272 48.416 36.9272ZM41.0305 40.1933V42.9177C42.8851 41.8673 45.4618 41.2929 48.416 41.2929C49.8603 41.2929 51.2553 41.4406 52.519 41.7196V39.2249C51.2225 38.9788 49.8274 38.8311 48.416 38.8311C45.6259 38.8311 43.0985 39.3234 41.0305 40.1933ZM48.416 43.2131C45.6259 43.2131 43.0985 43.689 41.0305 44.5753V47.2997C42.8851 46.2493 45.4618 45.6749 48.416 45.6749C49.8603 45.6749 51.2553 45.8226 52.519 46.1016V43.607C51.2225 43.3444 49.8274 43.2131 48.416 43.2131Z" fill="var(--fill-0, #E87000)"/>
</g>
</g>
</svg>
