<svg preserveAspectRatio="none" width="100%" height="100%" overflow="visible" style="display: block;" viewBox="0 0 78.7784 78.7782" fill="none" xmlns="http://www.w3.org/2000/svg">
<g id="Group 22">
<circle id="Ellipse 12" cx="39.3891" cy="39.3891" r="39.3891" fill="var(--fill-0, white)"/>
<circle id="Ellipse 13" cx="39.3894" cy="39.3891" r="36.9273" fill="var(--fill-0, #FFF7D6)"/>
<g id="ic:outline-menu-book">
<rect width="39.3891" height="39.3891" transform="translate(19.695 19.6945)" fill="#FFF7D6"/>
<path id="Vector" d="M54.1605 27.9006C52.3387 27.3261 50.3364 27.08 48.4162 27.08C45.2159 27.08 41.7693 27.7365 39.3895 29.5418C37.0098 27.7365 33.5632 27.08 30.3629 27.08C27.1625 27.08 23.716 27.7365 21.3362 29.5418V53.5855C21.3362 53.9958 21.7465 54.4062 22.1568 54.4062C22.3209 54.4062 22.403 54.3241 22.5671 54.3241C24.7828 53.2573 27.9831 52.5188 30.3629 52.5188C33.5632 52.5188 37.0098 53.1752 39.3895 54.9806C41.6052 53.5855 45.6262 52.5188 48.4162 52.5188C51.1242 52.5188 53.9143 53.0111 56.212 54.242C56.3761 54.3241 56.4582 54.3241 56.6223 54.3241C57.0326 54.3241 57.4429 53.9138 57.4429 53.5035V29.5418C56.4582 28.8032 55.3914 28.3109 54.1605 27.9006ZM54.1605 50.0569C52.3551 49.4825 50.3857 49.2363 48.4162 49.2363C45.6262 49.2363 41.6052 50.3031 39.3895 51.6982V32.8242C41.6052 31.4292 45.6262 30.3624 48.4162 30.3624C50.3857 30.3624 52.3551 30.6086 54.1605 31.183V50.0569Z" fill="var(--fill-0, #E87000)"/>
<path id="Vector_2" d="M48.4162 36.9272C49.8605 36.9272 51.2555 37.075 52.5192 37.354V34.8593C51.2227 34.6131 49.8277 34.4654 48.4162 34.4654C45.6262 34.4654 43.0987 34.9414 41.0308 35.8276V38.552C42.8853 37.5017 45.462 36.9272 48.4162 36.9272ZM41.0308 40.1933V42.9177C42.8853 41.8673 45.462 41.2929 48.4162 41.2929C49.8605 41.2929 51.2555 41.4406 52.5192 41.7196V39.2249C51.2227 38.9788 49.8277 38.831 48.4162 38.831C45.6262 38.831 43.0987 39.3234 41.0308 40.1933ZM48.4162 43.2131C45.6262 43.2131 43.0987 43.689 41.0308 44.5753V47.2997C42.8853 46.2493 45.462 45.6749 48.4162 45.6749C49.8605 45.6749 51.2555 45.8226 52.5192 46.1016V43.607C51.2227 43.3444 49.8277 43.2131 48.4162 43.2131Z" fill="var(--fill-0, #E87000)"/>
</g>
</g>
</svg>
