<svg preserveAspectRatio="none" width="100%" height="100%" overflow="visible" style="display: block;" viewBox="0 0 78.7783 78.7783" fill="none" xmlns="http://www.w3.org/2000/svg">
<g id="Group 21">
<circle id="Ellipse 12" cx="39.3891" cy="39.3891" r="39.3891" fill="var(--fill-0, white)"/>
<circle id="Ellipse 13" cx="39.3886" cy="39.3891" r="36.9273" fill="var(--fill-0, #D7ECFF)"/>
<circle id="Ellipse 14" cx="39.3887" cy="39.3891" r="19.6945" fill="var(--fill-0, #0065F4)"/>
<g id="material-symbols:quiz-rounded">
<path id="Vector" d="M41.0303 41.851C41.2629 41.851 41.4647 41.7656 41.636 41.5949C41.8072 41.4243 41.8925 41.2224 41.892 40.9893C41.8914 40.7563 41.8061 40.5547 41.636 40.3846C41.4658 40.2144 41.2639 40.1288 41.0303 40.1277C40.7967 40.1266 40.5952 40.2122 40.4256 40.3846C40.256 40.5569 40.1704 40.7585 40.1687 40.9893C40.1671 41.2202 40.2527 41.4221 40.4256 41.5949C40.5984 41.7678 40.8 41.8532 41.0303 41.851ZM41.0303 39.225C41.1808 39.225 41.3211 39.1703 41.4513 39.0609C41.5815 38.9515 41.66 38.8079 41.6868 38.6301C41.7142 38.466 41.7722 38.3155 41.8608 38.1788C41.9494 38.042 42.1103 37.8574 42.3433 37.6249C42.7536 37.2145 43.0272 36.8828 43.1639 36.6295C43.3007 36.3762 43.3691 36.0788 43.3691 35.7375C43.3691 35.122 43.1535 34.6192 42.7224 34.2292C42.2913 33.8391 41.7273 33.6444 41.0303 33.6449C40.579 33.6449 40.1687 33.7475 39.7994 33.9526C39.4302 34.1578 39.1361 34.4518 38.9173 34.8348C38.8352 34.9716 38.8284 35.1152 38.8968 35.2656C38.9652 35.4161 39.0814 35.5255 39.2455 35.5939C39.396 35.6622 39.5431 35.6691 39.687 35.6144C39.8309 35.5597 39.9504 35.4639 40.0456 35.3272C40.1687 35.1494 40.3123 35.0161 40.4764 34.9275C40.6406 34.8389 40.8252 34.7943 41.0303 34.7938C41.3586 34.7938 41.6253 34.8862 41.8304 35.0711C42.0356 35.256 42.1382 35.5055 42.1382 35.8195C42.1382 36.011 42.0835 36.1923 41.974 36.3636C41.8646 36.5348 41.6732 36.7501 41.3996 37.0094C41.003 37.3513 40.75 37.6147 40.6406 37.7996C40.5311 37.9846 40.4628 38.2545 40.4354 38.6096C40.4217 38.7737 40.4732 38.9173 40.5897 39.0404C40.7062 39.1635 40.8531 39.225 41.0303 39.225ZM36.1067 44.3128C35.6554 44.3128 35.2691 44.1522 34.948 43.8311C34.6269 43.51 34.466 43.1235 34.4655 42.6716V32.8243C34.4655 32.373 34.6263 31.9867 34.948 31.6656C35.2697 31.3445 35.6559 31.1836 36.1067 31.1831H45.954C46.4053 31.1831 46.7918 31.3439 47.1135 31.6656C47.4352 31.9873 47.5957 32.3735 47.5952 32.8243V42.6716C47.5952 43.1229 47.4346 43.5094 47.1135 43.8311C46.7924 44.1528 46.4059 44.3133 45.954 44.3128H36.1067ZM32.8243 47.5952C32.373 47.5952 31.9867 47.4347 31.6656 47.1135C31.3445 46.7924 31.1836 46.4059 31.1831 45.954V35.2861C31.1831 35.0536 31.2619 34.8589 31.4194 34.7019C31.577 34.5448 31.7717 34.4661 32.0037 34.4655C32.2356 34.465 32.4307 34.5437 32.5888 34.7019C32.7469 34.86 32.8254 35.0547 32.8243 35.2861V45.954H43.4922C43.7247 45.954 43.9197 46.0328 44.0773 46.1903C44.2348 46.3479 44.3133 46.5427 44.3128 46.7746C44.3122 47.0066 44.2334 47.2016 44.0764 47.3597C43.9194 47.5178 43.7247 47.5963 43.4922 47.5952H32.8243Z" fill="var(--fill-0, white)"/>
</g>
</g>
</svg>
