<svg preserveAspectRatio="none" width="100%" height="100%" overflow="visible" style="display: block;" viewBox="0 0 78.7784 78.7782" fill="none" xmlns="http://www.w3.org/2000/svg">
<g id="Group 35">
<circle id="Ellipse 12" cx="39.3893" cy="39.3891" r="39.3891" fill="var(--fill-0, white)"/>
<circle id="Ellipse 13" cx="39.3888" cy="39.3891" r="36.9273" fill="var(--fill-0, #D7ECFF)"/>
<circle id="Ellipse 14" cx="39.3889" cy="39.3891" r="19.6945" fill="var(--fill-0, #0065F4)"/>
<g id="material-symbols:quiz-rounded">
<path id="Vector" d="M41.03 41.8509C41.2625 41.8509 41.4643 41.7655 41.6356 41.5949C41.8068 41.4242 41.8921 41.2223 41.8916 40.9892C41.891 40.7562 41.8057 40.5546 41.6356 40.3845C41.4654 40.2143 41.2636 40.1287 41.03 40.1276C40.7964 40.1265 40.5948 40.2121 40.4252 40.3845C40.2556 40.5568 40.17 40.7584 40.1683 40.9892C40.1667 41.2201 40.2523 41.422 40.4252 41.5949C40.598 41.7677 40.7996 41.8531 41.03 41.8509ZM41.03 39.2249C41.1804 39.2249 41.3207 39.1702 41.4509 39.0608C41.5811 38.9514 41.6596 38.8078 41.6864 38.63C41.7138 38.4659 41.7718 38.3154 41.8604 38.1787C41.949 38.0419 42.1099 37.8573 42.3429 37.6248C42.7532 37.2145 43.0268 36.8827 43.1635 36.6294C43.3003 36.3761 43.3687 36.0787 43.3687 35.7374C43.3687 35.1219 43.1531 34.6192 42.722 34.2291C42.291 33.839 41.7269 33.6443 41.03 33.6448C40.5786 33.6448 40.1683 33.7474 39.799 33.9525C39.4298 34.1577 39.1357 34.4517 38.9169 34.8347C38.8348 34.9715 38.828 35.1151 38.8964 35.2655C38.9648 35.416 39.081 35.5254 39.2451 35.5938C39.3956 35.6621 39.5427 35.669 39.6866 35.6143C39.8305 35.5596 39.95 35.4638 40.0452 35.3271C40.1683 35.1493 40.3119 35.0161 40.476 34.9274C40.6402 34.8388 40.8248 34.7942 41.03 34.7937C41.3582 34.7937 41.6249 34.8861 41.83 35.071C42.0352 35.2559 42.1378 35.5054 42.1378 35.8194C42.1378 36.0109 42.0831 36.1923 41.9737 36.3635C41.8642 36.5347 41.6728 36.75 41.3992 37.0093C41.0026 37.3512 40.7496 37.6146 40.6402 37.7995C40.5308 37.9845 40.4624 38.2544 40.435 38.6095C40.4213 38.7736 40.4728 38.9172 40.5893 39.0403C40.7058 39.1634 40.8527 39.2249 41.03 39.2249ZM36.1063 44.3127C35.655 44.3127 35.2688 44.1521 34.9476 43.831C34.6265 43.5099 34.4657 43.1234 34.4651 42.6715V32.8242C34.4651 32.3729 34.6259 31.9866 34.9476 31.6655C35.2693 31.3444 35.6555 31.1835 36.1063 31.183H45.9536C46.4049 31.183 46.7914 31.3438 47.1131 31.6655C47.4348 31.9872 47.5954 32.3734 47.5948 32.8242V42.6715C47.5948 43.1228 47.4342 43.5093 47.1131 43.831C46.792 44.1527 46.4055 44.3132 45.9536 44.3127H36.1063ZM32.8239 47.5951C32.3726 47.5951 31.9863 47.4346 31.6652 47.1134C31.3441 46.7923 31.1832 46.4058 31.1827 45.9539V35.286C31.1827 35.0535 31.2615 34.8588 31.419 34.7018C31.5766 34.5447 31.7713 34.466 32.0033 34.4654C32.2352 34.4649 32.4303 34.5437 32.5884 34.7018C32.7465 34.8599 32.825 35.0546 32.8239 35.286V45.9539H43.4918C43.7243 45.9539 43.9193 46.0327 44.0769 46.1902C44.2344 46.3478 44.3129 46.5426 44.3124 46.7745C44.3118 47.0065 44.2331 47.2015 44.076 47.3596C43.919 47.5177 43.7243 47.5962 43.4918 47.5951H32.8239Z" fill="var(--fill-0, white)"/>
</g>
</g>
</svg>
