<svg preserveAspectRatio="none" width="100%" height="100%" overflow="visible" style="display: block;" viewBox="0 0 78.7784 78.7783" fill="none" xmlns="http://www.w3.org/2000/svg">
<g id="Group 55">
<circle id="Ellipse 12" cx="39.3893" cy="39.3891" r="39.3891" fill="var(--fill-0, white)"/>
<circle id="Ellipse 13" cx="39.3893" cy="39.3891" r="36.9273" fill="var(--fill-0, #FFF7D6)"/>
<g id="ic:outline-menu-book">
<rect width="39.3891" height="39.3891" transform="translate(19.6949 19.6945)" fill="#FFF7D6"/>
<path id="Vector" d="M54.1604 27.9006C52.3386 27.3261 50.3364 27.08 48.4161 27.08C45.2158 27.08 41.7692 27.7364 39.3895 29.5418C37.0097 27.7364 33.5632 27.08 30.3628 27.08C27.1624 27.08 23.7159 27.7364 21.3361 29.5418V53.5855C21.3361 53.9958 21.7464 54.4061 22.1567 54.4061C22.3209 54.4061 22.4029 54.3241 22.567 54.3241C24.7827 53.2573 27.983 52.5187 30.3628 52.5187C33.5632 52.5187 37.0097 53.1752 39.3895 54.9806C41.6051 53.5855 45.6261 52.5187 48.4161 52.5187C51.1241 52.5187 53.9142 53.0111 56.2119 54.242C56.376 54.3241 56.4581 54.3241 56.6222 54.3241C57.0325 54.3241 57.4428 53.9138 57.4428 53.5035V29.5418C56.4581 28.8032 55.3913 28.3109 54.1604 27.9006ZM54.1604 50.0569C52.355 49.4825 50.3856 49.2363 48.4161 49.2363C45.6261 49.2363 41.6051 50.3031 39.3895 51.6981V32.8242C41.6051 31.4292 45.6261 30.3624 48.4161 30.3624C50.3856 30.3624 52.355 30.6086 54.1604 31.183V50.0569Z" fill="var(--fill-0, #E87000)"/>
<path id="Vector_2" d="M48.4161 36.9272C49.8604 36.9272 51.2554 37.0749 52.5192 37.3539V34.8593C51.2226 34.6131 49.8276 34.4654 48.4161 34.4654C45.6261 34.4654 43.0986 34.9414 41.0307 35.8276V38.552C42.8852 37.5017 45.462 36.9272 48.4161 36.9272ZM41.0307 40.1932V42.9177C42.8852 41.8673 45.462 41.2929 48.4161 41.2929C49.8604 41.2929 51.2554 41.4406 52.5192 41.7196V39.2249C51.2226 38.9787 49.8276 38.831 48.4161 38.831C45.6261 38.831 43.0986 39.3234 41.0307 40.1932ZM48.4161 43.2131C45.6261 43.2131 43.0986 43.689 41.0307 44.5753V47.2997C42.8852 46.2493 45.462 45.6749 48.4161 45.6749C49.8604 45.6749 51.2554 45.8226 52.5192 46.1016V43.607C51.2226 43.3444 49.8276 43.2131 48.4161 43.2131Z" fill="var(--fill-0, #E87000)"/>
</g>
</g>
</svg>
