<svg preserveAspectRatio="none" width="100%" height="100%" overflow="visible" style="display: block;" viewBox="0 0 78.7784 78.7782" fill="none" xmlns="http://www.w3.org/2000/svg">
<g id="Group 26">
<circle id="Ellipse 12" cx="39.3891" cy="39.3891" r="39.3891" fill="var(--fill-0, white)"/>
<circle id="Ellipse 13" cx="39.3898" cy="39.3891" r="36.9273" fill="var(--fill-0, #FFF7D6)"/>
<g id="ic:outline-menu-book">
<rect width="39.3891" height="39.3891" transform="translate(19.6948 19.6946)" fill="#FFF7D6"/>
<path id="Vector" d="M54.1602 27.9006C52.3385 27.3262 50.3362 27.08 48.416 27.08C45.2156 27.08 41.7691 27.7365 39.3893 29.5419C37.0096 27.7365 33.563 27.08 30.3627 27.08C27.1623 27.08 23.7157 27.7365 21.336 29.5419V53.5856C21.336 53.9959 21.7463 54.4062 22.1566 54.4062C22.3207 54.4062 22.4028 54.3242 22.5669 54.3242C24.7825 53.2574 27.9829 52.5188 30.3627 52.5188C33.563 52.5188 37.0096 53.1753 39.3893 54.9806C41.605 53.5856 45.6259 52.5188 48.416 52.5188C51.124 52.5188 53.9141 53.0112 56.2118 54.2421C56.3759 54.3242 56.4579 54.3242 56.6221 54.3242C57.0324 54.3242 57.4427 53.9139 57.4427 53.5036V29.5419C56.4579 28.8033 55.3911 28.3109 54.1602 27.9006ZM54.1602 50.057C52.3549 49.4826 50.3854 49.2364 48.416 49.2364C45.6259 49.2364 41.605 50.3032 39.3893 51.6982V32.8243C41.605 31.4292 45.6259 30.3625 48.416 30.3625C50.3854 30.3625 52.3549 30.6086 54.1602 31.1831V50.057Z" fill="var(--fill-0, #E87000)"/>
<path id="Vector_2" d="M48.416 36.9273C49.8603 36.9273 51.2553 37.075 52.519 37.354V34.8594C51.2225 34.6132 49.8274 34.4655 48.416 34.4655C45.6259 34.4655 43.0985 34.9414 41.0305 35.8277V38.5521C42.8851 37.5017 45.4618 36.9273 48.416 36.9273ZM41.0305 40.1933V42.9177C42.8851 41.8674 45.4618 41.2929 48.416 41.2929C49.8603 41.2929 51.2553 41.4406 52.519 41.7197V39.225C51.2225 38.9788 49.8274 38.8311 48.416 38.8311C45.6259 38.8311 43.0985 39.3235 41.0305 40.1933ZM48.416 43.2132C45.6259 43.2132 43.0985 43.6891 41.0305 44.5754V47.2998C42.8851 46.2494 45.4618 45.675 48.416 45.675C49.8603 45.675 51.2553 45.8227 52.519 46.1017V43.607C51.2225 43.3445 49.8274 43.2132 48.416 43.2132Z" fill="var(--fill-0, #E87000)"/>
</g>
</g>
</svg>
