<svg preserveAspectRatio="none" width="100%" height="100%" overflow="visible" style="display: block;" viewBox="0 0 32 32" fill="none" xmlns="http://www.w3.org/2000/svg">
<g id="Group 22">
<circle id="Ellipse 12" cx="16" cy="16" r="16" fill="var(--fill-0, white)"/>
<circle id="Ellipse 13" cx="16" cy="16" r="15" fill="var(--fill-0, #FFF7D6)"/>
<g id="ic:outline-menu-book">
<rect width="16" height="16" transform="translate(8 8)" fill="#FFF7D6"/>
<path id="Vector" d="M22 11.3333C21.26 11.1 20.4467 11 19.6667 11C18.3667 11 16.9667 11.2667 16 12C15.0333 11.2667 13.6333 11 12.3333 11C11.0333 11 9.63333 11.2667 8.66667 12V21.7667C8.66667 21.9333 8.83333 22.1 9 22.1C9.06667 22.1 9.1 22.0667 9.16667 22.0667C10.0667 21.6333 11.3667 21.3333 12.3333 21.3333C13.6333 21.3333 15.0333 21.6 16 22.3333C16.9 21.7667 18.5333 21.3333 19.6667 21.3333C20.7667 21.3333 21.9 21.5333 22.8333 22.0333C22.9 22.0667 22.9333 22.0667 23 22.0667C23.1667 22.0667 23.3333 21.9 23.3333 21.7333V12C22.9333 11.7 22.5 11.5 22 11.3333ZM22 20.3333C21.2667 20.1 20.4667 20 19.6667 20C18.5333 20 16.9 20.4333 16 21V13.3333C16.9 12.7667 18.5333 12.3333 19.6667 12.3333C20.4667 12.3333 21.2667 12.4333 22 12.6667V20.3333Z" fill="var(--fill-0, #E87000)"/>
<path id="Vector_2" d="M19.6667 15C20.2533 15 20.82 15.06 21.3333 15.1733V14.16C20.8067 14.06 20.24 14 19.6667 14C18.5333 14 17.5067 14.1933 16.6667 14.5533V15.66C17.42 15.2333 18.4667 15 19.6667 15ZM16.6667 16.3267V17.4333C17.42 17.0067 18.4667 16.7733 19.6667 16.7733C20.2533 16.7733 20.82 16.8333 21.3333 16.9467V15.9333C20.8067 15.8333 20.24 15.7733 19.6667 15.7733C18.5333 15.7733 17.5067 15.9733 16.6667 16.3267ZM19.6667 17.5533C18.5333 17.5533 17.5067 17.7467 16.6667 18.1067V19.2133C17.42 18.7867 18.4667 18.5533 19.6667 18.5533C20.2533 18.5533 20.82 18.6133 21.3333 18.7267V17.7133C20.8067 17.6067 20.24 17.5533 19.6667 17.5533Z" fill="var(--fill-0, #E87000)"/>
</g>
</g>
</svg>
