<svg preserveAspectRatio="none" width="100%" height="100%" overflow="visible" style="display: block;" viewBox="0 0 78.7784 78.7782" fill="none" xmlns="http://www.w3.org/2000/svg">
<g id="Group 37">
<circle id="Ellipse 12" cx="39.3891" cy="39.3891" r="39.3891" fill="var(--fill-0, white)"/>
<circle id="Ellipse 13" cx="39.3892" cy="39.3891" r="36.9273" fill="var(--fill-0, #D7ECFF)"/>
<circle id="Ellipse 14" cx="39.3893" cy="39.3891" r="19.6945" fill="var(--fill-0, #0065F4)"/>
<g id="material-symbols:quiz-rounded">
<path id="Vector" d="M41.031 41.8509C41.2635 41.8509 41.4653 41.7655 41.6366 41.5948C41.8078 41.4242 41.8931 41.2223 41.8926 40.9892C41.892 40.7562 41.8067 40.5546 41.6366 40.3845C41.4664 40.2143 41.2646 40.1287 41.031 40.1276C40.7974 40.1265 40.5958 40.2121 40.4262 40.3845C40.2566 40.5568 40.171 40.7584 40.1693 40.9892C40.1677 41.2201 40.2533 41.422 40.4262 41.5948C40.599 41.7677 40.8006 41.8531 41.031 41.8509ZM41.031 39.2249C41.1814 39.2249 41.3217 39.1702 41.4519 39.0608C41.5821 38.9514 41.6606 38.8078 41.6874 38.63C41.7148 38.4659 41.7728 38.3154 41.8614 38.1787C41.95 38.0419 42.1109 37.8573 42.3439 37.6248C42.7542 37.2145 43.0278 36.8827 43.1645 36.6294C43.3013 36.3761 43.3697 36.0787 43.3697 35.7374C43.3697 35.1219 43.1541 34.6191 42.723 34.2291C42.292 33.839 41.7279 33.6443 41.031 33.6448C40.5796 33.6448 40.1693 33.7474 39.8 33.9525C39.4308 34.1577 39.1367 34.4517 38.9179 34.8347C38.8358 34.9715 38.829 35.1151 38.8974 35.2655C38.9658 35.416 39.082 35.5254 39.2461 35.5938C39.3966 35.6621 39.5437 35.669 39.6876 35.6143C39.8315 35.5596 39.951 35.4638 40.0462 35.3271C40.1693 35.1493 40.3129 35.016 40.477 34.9274C40.6412 34.8388 40.8258 34.7942 41.031 34.7937C41.3592 34.7937 41.6259 34.8861 41.831 35.071C42.0362 35.2559 42.1388 35.5054 42.1388 35.8194C42.1388 36.0109 42.0841 36.1923 41.9747 36.3635C41.8652 36.5347 41.6738 36.75 41.4002 37.0093C41.0036 37.3512 40.7506 37.6146 40.6412 37.7995C40.5318 37.9845 40.4634 38.2544 40.436 38.6095C40.4223 38.7736 40.4738 38.9172 40.5903 39.0403C40.7068 39.1634 40.8537 39.2249 41.031 39.2249ZM36.1073 44.3127C35.656 44.3127 35.2698 44.1521 34.9486 43.831C34.6275 43.5099 34.4667 43.1234 34.4661 42.6715V32.8242C34.4661 32.3729 34.6269 31.9866 34.9486 31.6655C35.2703 31.3444 35.6565 31.1835 36.1073 31.183H45.9546C46.4059 31.183 46.7924 31.3438 47.1141 31.6655C47.4358 31.9872 47.5964 32.3734 47.5958 32.8242V42.6715C47.5958 43.1228 47.4352 43.5093 47.1141 43.831C46.793 44.1527 46.4065 44.3132 45.9546 44.3127H36.1073ZM32.8249 47.5951C32.3736 47.5951 31.9873 47.4346 31.6662 47.1134C31.3451 46.7923 31.1842 46.4058 31.1837 45.9539V35.286C31.1837 35.0535 31.2625 34.8588 31.42 34.7018C31.5776 34.5447 31.7723 34.466 32.0043 34.4654C32.2362 34.4649 32.4313 34.5437 32.5894 34.7018C32.7475 34.8599 32.826 35.0546 32.8249 35.286V45.9539H43.4928C43.7253 45.9539 43.9203 46.0327 44.0779 46.1902C44.2354 46.3478 44.3139 46.5426 44.3134 46.7745C44.3128 47.0065 44.2341 47.2015 44.077 47.3596C43.92 47.5177 43.7253 47.5962 43.4928 47.5951H32.8249Z" fill="var(--fill-0, white)"/>
</g>
</g>
</svg>
