<svg preserveAspectRatio="none" width="100%" height="100%" overflow="visible" style="display: block;" viewBox="0 0 78.7784 78.7782" fill="none" xmlns="http://www.w3.org/2000/svg">
<g id="Group 52">
<circle id="Ellipse 12" cx="39.3891" cy="39.3891" r="39.3891" fill="var(--fill-0, white)"/>
<circle id="Ellipse 13" cx="39.3886" cy="39.3892" r="36.9273" fill="var(--fill-0, #D7ECFF)"/>
<circle id="Ellipse 14" cx="39.3894" cy="39.3892" r="19.6945" fill="var(--fill-0, #0065F4)"/>
<g id="material-symbols:quiz-rounded">
<path id="Vector" d="M41.0298 41.851C41.2623 41.851 41.4641 41.7656 41.6354 41.5949C41.8066 41.4243 41.892 41.2224 41.8914 40.9893C41.8909 40.7563 41.8055 40.5547 41.6354 40.3846C41.4652 40.2144 41.2634 40.1288 41.0298 40.1277C40.7962 40.1266 40.5946 40.2122 40.425 40.3846C40.2554 40.5569 40.1698 40.7585 40.1681 40.9893C40.1665 41.2202 40.2521 41.4221 40.425 41.5949C40.5979 41.7678 40.7994 41.8532 41.0298 41.851ZM41.0298 39.225C41.1802 39.225 41.3205 39.1703 41.4507 39.0609C41.5809 38.9515 41.6594 38.8079 41.6863 38.6301C41.7136 38.466 41.7716 38.3155 41.8602 38.1788C41.9488 38.042 42.1097 37.8574 42.3427 37.6249C42.753 37.2146 43.0266 36.8828 43.1633 36.6295C43.3001 36.3762 43.3685 36.0788 43.3685 35.7375C43.3685 35.122 43.1529 34.6193 42.7219 34.2292C42.2908 33.8391 41.7267 33.6444 41.0298 33.6449C40.5784 33.6449 40.1681 33.7475 39.7989 33.9526C39.4296 34.1578 39.1355 34.4518 38.9167 34.8348C38.8346 34.9716 38.8278 35.1152 38.8962 35.2656C38.9646 35.4161 39.0808 35.5255 39.2449 35.5939C39.3954 35.6622 39.5426 35.6691 39.6864 35.6144C39.8303 35.5597 39.9498 35.4639 40.045 35.3272C40.1681 35.1494 40.3117 35.0162 40.4759 34.9275C40.64 34.8389 40.8246 34.7943 41.0298 34.7938C41.358 34.7938 41.6247 34.8862 41.8299 35.0711C42.035 35.256 42.1376 35.5055 42.1376 35.8195C42.1376 36.011 42.0829 36.1924 41.9735 36.3636C41.864 36.5348 41.6726 36.7501 41.399 37.0094C41.0024 37.3513 40.7494 37.6147 40.64 37.7996C40.5306 37.9846 40.4622 38.2545 40.4348 38.6096C40.4211 38.7737 40.4726 38.9173 40.5891 39.0404C40.7056 39.1635 40.8525 39.225 41.0298 39.225ZM36.1061 44.3128C35.6548 44.3128 35.2686 44.1522 34.9474 43.8311C34.6263 43.51 34.4655 43.1235 34.4649 42.6716V32.8243C34.4649 32.373 34.6258 31.9867 34.9474 31.6656C35.2691 31.3445 35.6553 31.1836 36.1061 31.1831H45.9534C46.4047 31.1831 46.7912 31.3439 47.1129 31.6656C47.4346 31.9873 47.5952 32.3735 47.5946 32.8243V42.6716C47.5946 43.1229 47.4341 43.5094 47.1129 43.8311C46.7918 44.1528 46.4053 44.3133 45.9534 44.3128H36.1061ZM32.8237 47.5952C32.3724 47.5952 31.9861 47.4347 31.665 47.1135C31.3439 46.7924 31.183 46.4059 31.1825 45.954V35.2861C31.1825 35.0536 31.2613 34.8589 31.4188 34.7019C31.5764 34.5448 31.7711 34.4661 32.0031 34.4655C32.2351 34.465 32.4301 34.5438 32.5882 34.7019C32.7463 34.86 32.8248 35.0547 32.8237 35.2861V45.954H43.4916C43.7241 45.954 43.9191 46.0328 44.0767 46.1903C44.2342 46.3479 44.3127 46.5427 44.3122 46.7746C44.3116 47.0066 44.2329 47.2016 44.0759 47.3597C43.9188 47.5178 43.7241 47.5963 43.4916 47.5952H32.8237Z" fill="var(--fill-0, white)"/>
</g>
</g>
</svg>
