<svg preserveAspectRatio="none" width="100%" height="100%" overflow="visible" style="display: block;" viewBox="0 0 78.7784 78.7782" fill="none" xmlns="http://www.w3.org/2000/svg">
<g id="Group 56">
<circle id="Ellipse 12" cx="39.3893" cy="39.3891" r="39.3891" fill="var(--fill-0, white)"/>
<circle id="Ellipse 13" cx="39.3886" cy="39.389" r="36.9273" fill="var(--fill-0, #D7ECFF)"/>
<circle id="Ellipse 14" cx="39.3894" cy="39.3891" r="19.6945" fill="var(--fill-0, #0065F4)"/>
<g id="material-symbols:quiz-rounded">
<path id="Vector" d="M41.0298 41.8509C41.2623 41.8509 41.4641 41.7655 41.6354 41.5948C41.8066 41.4241 41.892 41.2223 41.8914 40.9892C41.8909 40.7562 41.8055 40.5546 41.6354 40.3844C41.4652 40.2143 41.2634 40.1287 41.0298 40.1276C40.7962 40.1265 40.5946 40.2121 40.425 40.3844C40.2554 40.5568 40.1698 40.7584 40.1681 40.9892C40.1665 41.2201 40.2521 41.4219 40.425 41.5948C40.5979 41.7677 40.7995 41.853 41.0298 41.8509ZM41.0298 39.2249C41.1802 39.2249 41.3205 39.1702 41.4507 39.0608C41.5809 38.9514 41.6595 38.8078 41.6863 38.63C41.7136 38.4659 41.7716 38.3154 41.8602 38.1786C41.9489 38.0419 42.1097 37.8572 42.3427 37.6247C42.753 37.2144 43.0266 36.8826 43.1634 36.6293C43.3001 36.376 43.3685 36.0787 43.3685 35.7373C43.3685 35.1219 43.153 34.6191 42.7219 34.2291C42.2908 33.839 41.7267 33.6442 41.0298 33.6448C40.5784 33.6448 40.1681 33.7474 39.7989 33.9525C39.4296 34.1577 39.1355 34.4517 38.9167 34.8347C38.8347 34.9714 38.8278 35.115 38.8962 35.2655C38.9646 35.4159 39.0808 35.5253 39.245 35.5937C39.3954 35.6621 39.5426 35.669 39.6864 35.6142C39.8303 35.5595 39.9499 35.4638 40.045 35.327C40.1681 35.1492 40.3117 35.016 40.4759 34.9274C40.64 34.8388 40.8246 34.7942 41.0298 34.7936C41.358 34.7936 41.6247 34.8861 41.8299 35.071C42.035 35.2559 42.1376 35.5054 42.1376 35.8194C42.1376 36.0109 42.0829 36.1922 41.9735 36.3635C41.8641 36.5347 41.6726 36.75 41.399 37.0093C41.0024 37.3512 40.7494 37.6146 40.64 37.7995C40.5306 37.9844 40.4622 38.2544 40.4348 38.6095C40.4212 38.7736 40.4726 38.9172 40.5891 39.0403C40.7056 39.1634 40.8525 39.2249 41.0298 39.2249ZM36.1061 44.3127C35.6548 44.3127 35.2686 44.1521 34.9474 43.831C34.6263 43.5098 34.4655 43.1233 34.4649 42.6715V32.8242C34.4649 32.3729 34.6258 31.9866 34.9474 31.6655C35.2691 31.3444 35.6554 31.1835 36.1061 31.183H45.9534C46.4047 31.183 46.7913 31.3438 47.1129 31.6655C47.4346 31.9872 47.5952 32.3734 47.5946 32.8242V42.6715C47.5946 43.1228 47.4341 43.5093 47.1129 43.831C46.7918 44.1527 46.4053 44.3132 45.9534 44.3127H36.1061ZM32.8237 47.5951C32.3724 47.5951 31.9861 47.4345 31.665 47.1134C31.3439 46.7923 31.183 46.4058 31.1825 45.9539V35.286C31.1825 35.0535 31.2613 34.8587 31.4188 34.7017C31.5764 34.5447 31.7711 34.4659 32.0031 34.4654C32.2351 34.4648 32.4301 34.5436 32.5882 34.7017C32.7463 34.8598 32.8248 35.0546 32.8237 35.286V45.9539H43.4916C43.7241 45.9539 43.9191 46.0327 44.0767 46.1902C44.2342 46.3478 44.3127 46.5425 44.3122 46.7745C44.3117 47.0064 44.2329 47.2015 44.0759 47.3596C43.9189 47.5177 43.7241 47.5962 43.4916 47.5951H32.8237Z" fill="var(--fill-0, white)"/>
</g>
</g>
</svg>
