<svg preserveAspectRatio="none" width="100%" height="100%" overflow="visible" style="display: block;" viewBox="0 0 78.7782 78.7782" fill="none" xmlns="http://www.w3.org/2000/svg">
<g id="Group 46">
<circle id="Ellipse 12" cx="39.3891" cy="39.3891" r="39.3891" fill="var(--fill-0, white)"/>
<circle id="Ellipse 13" cx="39.3886" cy="39.389" r="36.9273" fill="var(--fill-0, #FFF7D6)"/>
<g id="ic:outline-menu-book">
<rect width="39.3891" height="39.3891" transform="translate(19.6942 19.6945)" fill="#FFF7D6"/>
<path id="Vector" d="M54.1597 27.9005C52.3379 27.3261 50.3357 27.0799 48.4154 27.0799C45.2151 27.0799 41.7685 27.7364 39.3888 29.5417C37.009 27.7364 33.5625 27.0799 30.3621 27.0799C27.1617 27.0799 23.7152 27.7364 21.3354 29.5417V53.5855C21.3354 53.9958 21.7457 54.4061 22.156 54.4061C22.3202 54.4061 22.4022 54.324 22.5663 54.324C24.782 53.2572 27.9823 52.5187 30.3621 52.5187C33.5625 52.5187 37.009 53.1752 39.3888 54.9805C41.6044 53.5855 45.6254 52.5187 48.4154 52.5187C51.1234 52.5187 53.9135 53.0111 56.2112 54.242C56.3753 54.324 56.4574 54.324 56.6215 54.324C57.0318 54.324 57.4421 53.9137 57.4421 53.5034V29.5417C56.4574 28.8032 55.3906 28.3108 54.1597 27.9005ZM54.1597 50.0569C52.3543 49.4825 50.3849 49.2363 48.4154 49.2363C45.6254 49.2363 41.6044 50.3031 39.3888 51.6981V32.8242C41.6044 31.4291 45.6254 30.3623 48.4154 30.3623C50.3849 30.3623 52.3543 30.6085 54.1597 31.1829V50.0569Z" fill="var(--fill-0, #E87000)"/>
<path id="Vector_2" d="M48.4154 36.9272C49.8597 36.9272 51.2547 37.0749 52.5185 37.3539V34.8593C51.2219 34.6131 49.8269 34.4654 48.4154 34.4654C45.6254 34.4654 43.0979 34.9413 41.03 35.8276V38.552C42.8846 37.5016 45.4613 36.9272 48.4154 36.9272ZM41.03 40.1932V42.9176C42.8846 41.8672 45.4613 41.2928 48.4154 41.2928C49.8597 41.2928 51.2547 41.4405 52.5185 41.7195V39.2249C51.2219 38.9787 49.8269 38.831 48.4154 38.831C45.6254 38.831 43.0979 39.3234 41.03 40.1932ZM48.4154 43.213C45.6254 43.213 43.0979 43.689 41.03 44.5752V47.2996C42.8846 46.2493 45.4613 45.6748 48.4154 45.6748C49.8597 45.6748 51.2547 45.8226 52.5185 46.1016V43.6069C51.2219 43.3443 49.8269 43.213 48.4154 43.213Z" fill="var(--fill-0, #E87000)"/>
</g>
</g>
</svg>
