<svg preserveAspectRatio="none" width="100%" height="100%" overflow="visible" style="display: block;" viewBox="0 0 78.7783 78.7782" fill="none" xmlns="http://www.w3.org/2000/svg">
<g id="Group 29">
<circle id="Ellipse 12" cx="39.3891" cy="39.3891" r="39.3891" fill="var(--fill-0, white)"/>
<circle id="Ellipse 13" cx="39.3893" cy="39.3891" r="36.9273" fill="var(--fill-0, #FFF7D6)"/>
<g id="ic:outline-menu-book">
<rect width="39.3891" height="39.3891" transform="translate(19.6943 19.6946)" fill="#FFF7D6"/>
<path id="Vector" d="M54.1598 27.9006C52.338 27.3262 50.3357 27.08 48.4155 27.08C45.2151 27.08 41.7686 27.7365 39.3888 29.5419C37.0091 27.7365 33.5625 27.08 30.3622 27.08C27.1618 27.08 23.7153 27.7365 21.3355 29.5419V53.5856C21.3355 53.9959 21.7458 54.4062 22.1561 54.4062C22.3202 54.4062 22.4023 54.3242 22.5664 54.3242C24.7821 53.2574 27.9824 52.5188 30.3622 52.5188C33.5625 52.5188 37.0091 53.1753 39.3888 54.9806C41.6045 53.5856 45.6254 52.5188 48.4155 52.5188C51.1235 52.5188 53.9136 53.0112 56.2113 54.2421C56.3754 54.3242 56.4574 54.3242 56.6216 54.3242C57.0319 54.3242 57.4422 53.9139 57.4422 53.5036V29.5419C56.4574 28.8033 55.3907 28.3109 54.1598 27.9006ZM54.1598 50.057C52.3544 49.4826 50.385 49.2364 48.4155 49.2364C45.6254 49.2364 41.6045 50.3032 39.3888 51.6982V32.8243C41.6045 31.4292 45.6254 30.3625 48.4155 30.3625C50.385 30.3625 52.3544 30.6086 54.1598 31.1831V50.057Z" fill="var(--fill-0, #E87000)"/>
<path id="Vector_2" d="M48.4155 36.9273C49.8598 36.9273 51.2548 37.075 52.5185 37.354V34.8594C51.222 34.6132 49.827 34.4655 48.4155 34.4655C45.6254 34.4655 43.098 34.9414 41.0301 35.8277V38.5521C42.8846 37.5017 45.4613 36.9273 48.4155 36.9273ZM41.0301 40.1933V42.9177C42.8846 41.8674 45.4613 41.2929 48.4155 41.2929C49.8598 41.2929 51.2548 41.4406 52.5185 41.7197V39.225C51.222 38.9788 49.827 38.8311 48.4155 38.8311C45.6254 38.8311 43.098 39.3235 41.0301 40.1933ZM48.4155 43.2132C45.6254 43.2132 43.098 43.6891 41.0301 44.5754V47.2998C42.8846 46.2494 45.4613 45.675 48.4155 45.675C49.8598 45.675 51.2548 45.8227 52.5185 46.1017V43.607C51.222 43.3445 49.827 43.2132 48.4155 43.2132Z" fill="var(--fill-0, #E87000)"/>
</g>
</g>
</svg>
