<svg preserveAspectRatio="none" width="100%" height="100%" overflow="visible" style="display: block;" viewBox="0 0 32 32" fill="none" xmlns="http://www.w3.org/2000/svg">
<g id="Group 21">
<circle id="Ellipse 12" cx="16" cy="16" r="16" fill="var(--fill-0, white)"/>
<circle id="Ellipse 13" cx="16" cy="16" r="15" fill="var(--fill-0, #D7ECFF)"/>
<circle id="Ellipse 14" cx="16" cy="16" r="8" fill="var(--fill-0, #0065F4)"/>
<g id="material-symbols:quiz-rounded" clip-path="url(#clip0_478_3193)">
<path id="Vector" d="M16.6667 17C16.7611 17 16.8431 16.9653 16.9127 16.896C16.9822 16.8267 17.0169 16.7447 17.0167 16.65C17.0164 16.5553 16.9818 16.4734 16.9127 16.4043C16.8436 16.3352 16.7616 16.3004 16.6667 16.3C16.5718 16.2996 16.4899 16.3343 16.421 16.4043C16.3521 16.4743 16.3173 16.5562 16.3167 16.65C16.316 16.7438 16.3508 16.8258 16.421 16.896C16.4912 16.9662 16.5731 17.0009 16.6667 17ZM16.6667 15.9333C16.7278 15.9333 16.7848 15.9111 16.8377 15.8667C16.8906 15.8222 16.9224 15.7639 16.9333 15.6917C16.9444 15.625 16.968 15.5639 17.004 15.5083C17.04 15.4528 17.1053 15.3778 17.2 15.2833C17.3667 15.1167 17.4778 14.9819 17.5333 14.879C17.5889 14.7761 17.6167 14.6553 17.6167 14.5167C17.6167 14.2667 17.5291 14.0624 17.354 13.904C17.1789 13.7456 16.9498 13.6664 16.6667 13.6667C16.4833 13.6667 16.3167 13.7083 16.1667 13.7917C16.0167 13.875 15.8972 13.9944 15.8083 14.15C15.775 14.2056 15.7722 14.2639 15.8 14.325C15.8278 14.3861 15.875 14.4306 15.9417 14.4583C16.0028 14.4861 16.0626 14.4889 16.121 14.4667C16.1794 14.4444 16.228 14.4056 16.2667 14.35C16.3167 14.2778 16.375 14.2237 16.4417 14.1877C16.5083 14.1517 16.5833 14.1336 16.6667 14.1333C16.8 14.1333 16.9083 14.1709 16.9917 14.246C17.075 14.3211 17.1167 14.4224 17.1167 14.55C17.1167 14.6278 17.0944 14.7014 17.05 14.771C17.0056 14.8406 16.9278 14.928 16.8167 15.0333C16.6556 15.1722 16.5528 15.2792 16.5083 15.3543C16.4639 15.4294 16.4361 15.5391 16.425 15.6833C16.4194 15.75 16.4403 15.8083 16.4877 15.8583C16.535 15.9083 16.5947 15.9333 16.6667 15.9333ZM14.6667 18C14.4833 18 14.3264 17.9348 14.196 17.8043C14.0656 17.6739 14.0002 17.5169 14 17.3333V13.3333C14 13.15 14.0653 12.9931 14.196 12.8627C14.3267 12.7322 14.4836 12.6669 14.6667 12.6667H18.6667C18.85 12.6667 19.007 12.732 19.1377 12.8627C19.2683 12.9933 19.3336 13.1502 19.3333 13.3333V17.3333C19.3333 17.5167 19.2681 17.6737 19.1377 17.8043C19.0072 17.935 18.8502 18.0002 18.6667 18H14.6667ZM13.3333 19.3333C13.15 19.3333 12.9931 19.2681 12.8627 19.1377C12.7322 19.0072 12.6669 18.8502 12.6667 18.6667V14.3333C12.6667 14.2389 12.6987 14.1598 12.7627 14.096C12.8267 14.0322 12.9058 14.0002 13 14C13.0942 13.9998 13.1734 14.0318 13.2377 14.096C13.3019 14.1602 13.3338 14.2393 13.3333 14.3333V18.6667H17.6667C17.7611 18.6667 17.8403 18.6987 17.9043 18.7627C17.9683 18.8267 18.0002 18.9058 18 19C17.9998 19.0942 17.9678 19.1734 17.904 19.2377C17.8402 19.3019 17.7611 19.3338 17.6667 19.3333H13.3333Z" fill="var(--fill-0, white)"/>
</g>
</g>
<defs>
<clipPath id="clip0_478_3193">
<rect width="8" height="8" fill="white" transform="translate(12 12)"/>
</clipPath>
</defs>
</svg>
