<svg preserveAspectRatio="none" width="100%" height="100%" overflow="visible" style="display: block;" viewBox="0 0 78.7782 78.7782" fill="none" xmlns="http://www.w3.org/2000/svg">
<g id="Group 53">
<circle id="Ellipse 12" cx="39.3891" cy="39.3891" r="39.3891" fill="var(--fill-0, white)"/>
<circle id="Ellipse 13" cx="39.3893" cy="39.3891" r="36.9273" fill="var(--fill-0, #D7ECFF)"/>
<circle id="Ellipse 14" cx="39.3894" cy="39.3893" r="19.6945" fill="var(--fill-0, #0065F4)"/>
<g id="material-symbols:quiz-rounded">
<path id="Vector" d="M41.0304 41.851C41.2629 41.851 41.4648 41.7657 41.636 41.595C41.8073 41.4243 41.8926 41.2224 41.8921 40.9894C41.8915 40.7563 41.8062 40.5548 41.636 40.3846C41.4659 40.2145 41.264 40.1289 41.0304 40.1278C40.7968 40.1267 40.5952 40.2123 40.4256 40.3846C40.2561 40.5569 40.1704 40.7585 40.1688 40.9894C40.1672 41.2203 40.2528 41.4221 40.4256 41.595C40.5985 41.7679 40.8001 41.8532 41.0304 41.851ZM41.0304 39.2251C41.1809 39.2251 41.3212 39.1704 41.4514 39.061C41.5816 38.9516 41.6601 38.808 41.6869 38.6302C41.7143 38.466 41.7723 38.3156 41.8609 38.1788C41.9495 38.0421 42.1104 37.8574 42.3434 37.6249C42.7537 37.2146 43.0272 36.8828 43.164 36.6295C43.3008 36.3762 43.3692 36.0789 43.3692 35.7375C43.3692 35.1221 43.1536 34.6193 42.7225 34.2292C42.2914 33.8392 41.7274 33.6444 41.0304 33.645C40.5791 33.645 40.1688 33.7475 39.7995 33.9527C39.4303 34.1579 39.1362 34.4519 38.9174 34.8349C38.8353 34.9716 38.8285 35.1152 38.8969 35.2657C38.9652 35.4161 39.0815 35.5255 39.2456 35.5939C39.3961 35.6623 39.5432 35.6691 39.6871 35.6144C39.831 35.5597 39.9505 35.464 40.0457 35.3272C40.1688 35.1494 40.3124 35.0162 40.4765 34.9276C40.6406 34.839 40.8253 34.7944 41.0304 34.7938C41.3587 34.7938 41.6254 34.8863 41.8305 35.0712C42.0357 35.2561 42.1383 35.5056 42.1383 35.8196C42.1383 36.0111 42.0835 36.1924 41.9741 36.3636C41.8647 36.5349 41.6732 36.7501 41.3997 37.0095C41.0031 37.3514 40.7501 37.6148 40.6406 37.7997C40.5312 37.9846 40.4628 38.2546 40.4355 38.6096C40.4218 38.7738 40.4732 38.9174 40.5898 39.0405C40.7063 39.1635 40.8532 39.2251 41.0304 39.2251ZM36.1068 44.3129C35.6555 44.3129 35.2692 44.1523 34.9481 43.8312C34.627 43.51 34.4661 43.1235 34.4656 42.6716V32.8244C34.4656 32.373 34.6264 31.9868 34.9481 31.6657C35.2698 31.3445 35.656 31.1837 36.1068 31.1832H45.9541C46.4054 31.1832 46.7919 31.344 47.1136 31.6657C47.4353 31.9873 47.5958 32.3736 47.5953 32.8244V42.6716C47.5953 43.123 47.4347 43.5095 47.1136 43.8312C46.7925 44.1528 46.406 44.3134 45.9541 44.3129H36.1068ZM32.8244 47.5953C32.373 47.5953 31.9868 47.4347 31.6657 47.1136C31.3445 46.7925 31.1837 46.4059 31.1832 45.9541V35.2862C31.1832 35.0537 31.2619 34.8589 31.4195 34.7019C31.5771 34.5449 31.7718 34.4661 32.0038 34.4656C32.2357 34.465 32.4308 34.5438 32.5889 34.7019C32.747 34.86 32.8255 35.0548 32.8244 35.2862V45.9541H43.4923C43.7248 45.9541 43.9198 46.0328 44.0773 46.1904C44.2349 46.348 44.3134 46.5427 44.3129 46.7747C44.3123 47.0066 44.2335 47.2017 44.0765 47.3598C43.9195 47.5179 43.7248 47.5964 43.4923 47.5953H32.8244Z" fill="var(--fill-0, white)"/>
</g>
</g>
</svg>
