<svg preserveAspectRatio="none" width="100%" height="100%" overflow="visible" style="display: block;" viewBox="0 0 78.7784 78.7782" fill="none" xmlns="http://www.w3.org/2000/svg">
<g id="Group 42">
<circle id="Ellipse 12" cx="39.3893" cy="39.3891" r="39.3891" fill="var(--fill-0, white)"/>
<circle id="Ellipse 13" cx="39.3888" cy="39.3891" r="36.9273" fill="var(--fill-0, #D7ECFF)"/>
<circle id="Ellipse 14" cx="39.3889" cy="39.3891" r="19.6945" fill="var(--fill-0, #0065F4)"/>
<g id="material-symbols:quiz-rounded">
<path id="Vector" d="M41.0299 41.851C41.2624 41.851 41.4643 41.7656 41.6355 41.5949C41.8068 41.4242 41.8921 41.2224 41.8916 40.9893C41.891 40.7563 41.8057 40.5547 41.6355 40.3845C41.4654 40.2144 41.2635 40.1288 41.0299 40.1277C40.7963 40.1266 40.5947 40.2122 40.4251 40.3845C40.2556 40.5569 40.1699 40.7585 40.1683 40.9893C40.1667 41.2202 40.2523 41.4221 40.4251 41.5949C40.598 41.7678 40.7996 41.8531 41.0299 41.851ZM41.0299 39.225C41.1804 39.225 41.3207 39.1703 41.4509 39.0609C41.5811 38.9515 41.6596 38.8079 41.6864 38.6301C41.7138 38.466 41.7718 38.3155 41.8604 38.1787C41.949 38.042 42.1098 37.8573 42.3429 37.6248C42.7532 37.2145 43.0267 36.8827 43.1635 36.6294C43.3003 36.3761 43.3687 36.0788 43.3687 35.7374C43.3687 35.122 43.1531 34.6192 42.722 34.2292C42.2909 33.8391 41.7269 33.6443 41.0299 33.6449C40.5786 33.6449 40.1683 33.7475 39.799 33.9526C39.4297 34.1578 39.1357 34.4518 38.9169 34.8348C38.8348 34.9715 38.828 35.1151 38.8964 35.2656C38.9647 35.416 39.081 35.5254 39.2451 35.5938C39.3956 35.6622 39.5427 35.6691 39.6866 35.6143C39.8305 35.5596 39.95 35.4639 40.0452 35.3271C40.1683 35.1493 40.3119 35.0161 40.476 34.9275C40.6401 34.8389 40.8248 34.7943 41.0299 34.7937C41.3582 34.7937 41.6249 34.8862 41.83 35.0711C42.0352 35.256 42.1377 35.5055 42.1377 35.8195C42.1377 36.011 42.083 36.1923 41.9736 36.3636C41.8642 36.5348 41.6727 36.7501 41.3992 37.0094C41.0026 37.3513 40.7496 37.6147 40.6401 37.7996C40.5307 37.9845 40.4623 38.2545 40.435 38.6096C40.4213 38.7737 40.4727 38.9173 40.5893 39.0404C40.7058 39.1635 40.8527 39.225 41.0299 39.225ZM36.1063 44.3128C35.655 44.3128 35.2687 44.1522 34.9476 43.8311C34.6265 43.5099 34.4656 43.1234 34.4651 42.6716V32.8243C34.4651 32.373 34.6259 31.9867 34.9476 31.6656C35.2693 31.3445 35.6555 31.1836 36.1063 31.1831H45.9536C46.4049 31.1831 46.7914 31.3439 47.1131 31.6656C47.4348 31.9873 47.5953 32.3735 47.5948 32.8243V42.6716C47.5948 43.1229 47.4342 43.5094 47.1131 43.8311C46.792 44.1528 46.4054 44.3133 45.9536 44.3128H36.1063ZM32.8239 47.5952C32.3725 47.5952 31.9863 47.4346 31.6652 47.1135C31.344 46.7924 31.1832 46.4059 31.1827 45.954V35.2861C31.1827 35.0536 31.2614 34.8588 31.419 34.7018C31.5765 34.5448 31.7713 34.466 32.0033 34.4655C32.2352 34.465 32.4303 34.5437 32.5884 34.7018C32.7465 34.8599 32.825 35.0547 32.8239 35.2861V45.954H43.4917C43.7243 45.954 43.9193 46.0328 44.0768 46.1903C44.2344 46.3479 44.3129 46.5426 44.3124 46.7746C44.3118 47.0065 44.233 47.2016 44.076 47.3597C43.919 47.5178 43.7243 47.5963 43.4917 47.5952H32.8239Z" fill="var(--fill-0, white)"/>
</g>
</g>
</svg>
